<?xml version="1.0" standalone="no"?>
<!DOCTYPE svg PUBLIC "-//W3C//DTD SVG 20010904//EN"
 "http://www.w3.org/TR/2001/REC-SVG-20010904/DTD/svg10.dtd">
<svg version="1.0" xmlns="http://www.w3.org/2000/svg"
 width="500.000000pt" height="500.000000pt" viewBox="0 0 500.000000 500.000000"
 preserveAspectRatio="xMidYMid meet">

<g transform="translate(0.000000,500.000000) scale(0.100000,-0.100000)"
fill="#000000" stroke="none">
<path d="M0 2500 l0 -2500 2500 0 2500 0 0 2500 0 2500 -2500 0 -2500 0 0
-2500z m2876 551 c64 -39 115 -133 129 -238 10 -76 -14 -145 -76 -218 l-51
-60 9 -145 c4 -80 8 -222 8 -315 0 -147 -3 -175 -18 -198 -24 -37 -70 -37 -94
0 -16 23 -18 52 -18 208 0 99 4 241 8 315 l8 135 -54 67 c-68 83 -85 140 -68
229 28 140 90 222 181 238 3 1 19 -8 36 -18z m-1196 -241 l0 -240 -60 0 -60 0
0 240 0 240 60 0 60 0 0 -240z m440 0 l0 -240 -60 0 c-58 0 -60 1 -60 27 l0
26 -25 -23 c-38 -35 -119 -39 -164 -8 -55 37 -76 82 -76 163 0 53 5 79 21 105
46 79 137 103 208 55 l36 -24 0 79 0 80 60 0 60 0 0 -240z m-1210 115 c16 -8
34 -23 39 -32 9 -15 10 -12 11 15 l0 32 56 0 55 0 -3 -222 c-3 -215 -4 -224
-26 -256 -61 -85 -206 -95 -288 -19 -19 18 -38 47 -43 65 l-10 32 54 0 c44 0
59 -5 79 -25 54 -54 126 -13 126 72 -1 37 -3 44 -11 30 -15 -26 -63 -47 -107
-47 -82 0 -152 85 -152 185 0 133 117 223 220 170z m501 -8 c60 -32 89 -84 89
-162 0 -111 -73 -185 -182 -185 -112 0 -188 74 -188 185 0 55 14 92 48 129 57
60 154 74 233 33z m1129 5 c35 -17 80 -73 80 -98 0 -10 -14 -14 -46 -14 -37 0
-52 5 -70 26 -32 34 -79 31 -79 -6 0 -22 7 -26 70 -43 88 -23 110 -37 125 -81
16 -48 -8 -98 -57 -121 -50 -24 -150 -16 -192 15 -30 20 -61 67 -61 90 0 6 23
10 55 10 30 0 55 -4 55 -10 0 -19 49 -42 76 -36 19 5 25 12 22 29 -2 18 -17
25 -82 43 -94 26 -121 49 -121 103 0 42 30 85 70 101 35 15 118 11 155 -8z
m788 -1 c46 -23 67 -46 87 -94 27 -64 13 -150 -33 -200 -76 -84 -235 -72 -298
23 -23 34 -28 53 -28 105 0 52 5 71 28 105 49 74 163 103 244 61z m423 -4 c60
-32 89 -84 89 -162 0 -111 -73 -185 -182 -185 -112 0 -188 74 -188 185 0 55
14 92 48 129 57 60 154 74 233 33z m269 -7 l0 -29 27 25 c33 30 62 38 115 31
88 -12 118 -78 118 -262 l0 -105 -60 0 -60 0 0 115 c0 102 -2 117 -20 135 -11
11 -33 20 -50 20 -17 0 -39 -9 -50 -20 -18 -18 -20 -33 -20 -135 l0 -115 -60
0 -60 0 0 185 0 185 60 0 c60 0 60 0 60 -30z m-2590 -616 c-14 -35 -13 -36 11
-29 20 7 21 5 14 -31 -7 -38 -6 -38 13 -21 11 10 22 35 26 55 7 43 22 70 33
59 4 -5 0 -30 -10 -56 -20 -56 -21 -71 -7 -71 6 0 13 14 17 30 4 24 9 29 25
24 10 -3 26 0 34 7 11 9 18 8 34 -6 20 -18 40 -13 40 11 0 18 8 18 27 -1 10
-10 13 -24 9 -40 -4 -14 -2 -25 4 -25 15 0 38 41 45 83 4 20 12 40 18 44 6 4
7 -6 3 -29 -5 -30 -4 -36 11 -34 14 1 17 -6 15 -32 -3 -39 11 -35 33 9 18 35
42 38 54 7 6 -16 4 -28 -7 -40 -17 -20 -52 -24 -52 -6 0 9 -3 9 -12 0 -23 -23
-40 -14 -33 18 9 41 -11 39 -29 -2 -8 -18 -15 -27 -15 -19 -1 11 -6 10 -21 -4
-26 -24 -48 -8 -31 23 7 13 7 23 1 27 -5 3 -16 -8 -25 -25 -8 -16 -18 -30 -21
-30 -2 0 0 9 6 20 7 13 7 20 1 20 -6 0 -15 -9 -21 -20 -16 -30 -50 -26 -50 5
0 14 -4 25 -9 25 -5 0 -16 -11 -25 -25 -18 -27 -41 -33 -49 -12 -4 10 -7 10
-18 0 -24 -23 -39 -15 -32 17 8 41 -12 39 -26 -2 -8 -23 -14 -29 -20 -20 -11
18 -35 -13 -50 -65 -13 -48 -25 -54 -42 -22 -9 18 -7 27 10 50 17 23 19 29 6
29 -8 0 -15 5 -15 10 0 6 -9 5 -21 -2 -17 -10 -23 -10 -26 -1 -3 9 -10 9 -29
1 -19 -9 -30 -9 -44 0 -12 7 -21 8 -25 2 -3 -6 -13 -10 -21 -10 -12 0 -14 7
-9 30 4 20 3 30 -5 30 -6 0 -16 -13 -21 -30 -14 -40 -30 -39 -19 1 11 39 11
38 41 41 22 3 24 0 21 -31 -2 -29 0 -32 12 -22 9 7 18 21 21 31 6 19 42 37 52
26 4 -3 -4 -17 -17 -31 -13 -14 -20 -28 -16 -32 10 -10 39 10 52 36 19 38 27
37 20 -2 -6 -34 -5 -38 9 -30 9 6 22 21 29 34 8 16 21 24 40 25 27 1 27 0 21
-35 -7 -35 -7 -36 13 -17 11 10 24 37 27 59 9 49 13 59 25 52 5 -3 5 -16 0
-31z m640 14 c0 -13 -7 -36 -15 -52 -25 -47 -19 -63 12 -35 l27 24 -16 -25
c-12 -19 -25 -25 -57 -27 -34 -1 -41 2 -41 18 0 25 -16 24 -30 -1 -6 -11 -19
-20 -29 -20 -27 0 -33 45 -10 66 18 16 20 16 39 -1 19 -17 21 -17 40 0 10 9
26 15 34 12 10 -4 16 4 20 29 8 38 26 46 26 12z m270 8 c0 -8 8 -17 18 -19 14
-4 13 -5 -4 -6 -15 -1 -24 -12 -34 -41 -18 -55 -4 -63 32 -17 16 20 36 37 44
37 16 0 16 -2 8 -24 -8 -22 -25 -20 -17 2 3 9 3 14 -1 11 -4 -4 -9 -18 -12
-33 -3 -18 0 -26 10 -26 20 0 56 40 56 62 0 22 7 23 27 3 10 -10 13 -24 9 -40
-10 -38 13 -30 30 10 19 45 28 45 19 -1 -8 -46 15 -43 30 4 10 36 31 45 21 10
-3 -13 -11 -49 -18 -80 -7 -32 -16 -58 -20 -58 -10 0 -10 8 2 48 7 27 6 33 -4
29 -8 -3 -18 -1 -24 5 -8 8 -16 7 -27 -2 -23 -19 -41 1 -26 28 18 33 -3 34
-23 1 -13 -21 -25 -29 -46 -29 -16 0 -32 4 -35 10 -4 6 -13 5 -26 -3 -16 -10
-21 -9 -28 2 -5 8 -11 9 -15 3 -3 -5 -38 -9 -78 -8 -66 1 -73 3 -76 22 -3 24
21 54 44 54 20 0 17 -14 -6 -35 -24 -21 -26 -35 -6 -35 8 0 27 16 42 35 14 19
32 35 39 35 17 0 25 -23 18 -49 -7 -28 11 -27 25 2 23 47 24 67 5 68 -15 0
-14 2 5 9 12 5 22 14 22 20 0 5 5 10 10 10 6 0 10 -6 10 -14z m-1055 -6 c3 -5
1 -10 -4 -10 -6 0 -11 5 -11 10 0 6 2 10 4 10 3 0 8 -4 11 -10z"/>
<path d="M1870 2818 c-27 -30 -28 -100 0 -128 30 -30 83 -27 109 6 45 57 12
144 -54 144 -22 0 -41 -8 -55 -22z"/>
<path d="M837 2827 c-38 -27 -38 -117 0 -144 25 -19 67 -16 94 6 19 15 24 29
24 66 0 37 -5 51 -24 66 -27 22 -69 25 -94 6z"/>
<path d="M1277 2827 c-24 -17 -36 -66 -25 -102 26 -94 148 -60 135 38 -3 21
-13 47 -23 58 -20 22 -62 25 -87 6z"/>
<path d="M3191 2814 c-43 -54 -12 -144 50 -144 44 0 69 31 69 85 0 80 -74 116
-119 59z"/>
<path d="M3617 2827 c-24 -17 -36 -66 -25 -102 26 -94 148 -60 135 38 -3 21
-13 47 -23 58 -20 22 -62 25 -87 6z"/>
<path d="M1197 2253 c-4 -3 -7 -11 -7 -17 0 -6 5 -5 12 2 6 6 9 14 7 17 -3 3
-9 2 -12 -2z"/>
<path d="M1320 2240 c-14 -26 -4 -45 16 -29 16 13 18 35 5 44 -6 3 -15 -4 -21
-15z"/>
<path d="M1592 2243 c-15 -27 -15 -43 -1 -43 6 0 9 6 6 14 -3 8 -1 16 5 18 6
2 9 11 6 18 -3 11 -8 10 -16 -7z"/>
<path d="M1846 2252 c-3 -6 -1 -14 5 -17 15 -10 25 3 12 16 -7 7 -13 7 -17 1z"/>
<path d="M1830 2210 c0 -5 4 -10 9 -10 6 0 13 5 16 10 3 6 -1 10 -9 10 -9 0
-16 -4 -16 -10z"/>
<path d="M1317 2154 c-4 -4 -7 -17 -7 -28 1 -19 1 -20 11 -3 11 19 8 43 -4 31z"/>
<path d="M1922 2243 c-15 -27 -15 -43 -1 -43 6 0 9 6 6 14 -3 8 -1 16 5 18 6
2 9 11 6 18 -3 11 -8 10 -16 -7z"/>
<path d="M2002 2248 c-15 -15 -16 -51 0 -46 6 2 16 12 22 21 14 22 -4 43 -22
25z"/>
<path d="M2157 2253 c-4 -3 -7 -11 -7 -17 0 -6 5 -5 12 2 6 6 9 14 7 17 -3 3
-9 2 -12 -2z"/>
<path d="M2232 2243 c-18 -32 -16 -51 4 -31 9 8 14 24 12 34 -4 18 -5 17 -16
-3z"/>
</g>
</svg>
