<?xml version="1.0" standalone="no"?>
<!DOCTYPE svg PUBLIC "-//W3C//DTD SVG 20010904//EN"
 "http://www.w3.org/TR/2001/REC-SVG-20010904/DTD/svg10.dtd">
<svg version="1.0" xmlns="http://www.w3.org/2000/svg"
 width="2000.000000pt" height="2000.000000pt" viewBox="0 0 2000.000000 2000.000000"
 preserveAspectRatio="xMidYMid meet">
<metadata>
Created by potrace 1.16, written by Peter Selinger 2001-2019
</metadata>
<g transform="translate(0.000000,2000.000000) scale(0.100000,-0.100000)"
fill="#000000" stroke="none">
<path d="M8450 14066 l0 -813 -62 -13 c-129 -25 -702 -172 -953 -244 -1649
-472 -2923 -1142 -3951 -2076 -255 -233 -624 -626 -777 -828 -177 -236 -307
-662 -348 -1140 -17 -208 -7 -682 20 -882 30 -224 59 -368 85 -426 86 -188
301 -245 413 -108 45 55 58 67 154 147 445 371 928 556 1288 493 169 -30 315
-107 466 -247 98 -92 179 -194 317 -399 220 -326 337 -458 503 -566 107 -70
191 -108 313 -142 90 -25 111 -27 292 -27 220 0 254 5 650 100 332 79 391 89
575 89 171 1 231 -10 358 -61 137 -55 246 -133 536 -381 358 -308 497 -398
734 -477 187 -62 246 -70 507 -70 199 1 255 4 362 23 236 42 529 126 792 228
174 67 249 160 300 374 160 678 433 1455 727 2070 l74 154 5 -2280 5 -2281
928 1245 927 1244 0 3015 0 3015 76 81 c90 97 104 125 104 212 l0 65 1600 0
1600 0 0 860 0 860 -4310 0 -4310 0 0 -814z m1810 -922 c-8 -2 -136 -27 -285
-54 -1039 -195 -1748 -354 -2375 -535 -1732 -498 -3057 -1229 -4087 -2253
-229 -227 -496 -528 -582 -655 -127 -188 -236 -549 -277 -922 -17 -161 -23
-497 -12 -705 l6 -125 -18 110 c-10 60 -22 148 -25 195 -4 47 -9 96 -11 110
-5 31 -6 504 0 545 2 17 7 64 11 105 28 312 121 645 235 840 109 186 585 690
950 1006 880 761 1982 1351 3315 1775 600 191 1263 356 2165 538 l145 29 430
0 c237 0 423 -2 415 -4z"/>
</g>
</svg>
